<svg width="137" height="45" viewBox="0 0 137 45" fill="none" xmlns="http://www.w3.org/2000/svg">
<path d="M130.366 44.1172C133.419 44.1172 135.894 41.641 135.894 38.5873V6.03026C135.894 2.97694 133.419 0.500935 130.366 0.500935H6.02945C2.97603 0.500935 0.5 2.97707 0.5 6.03026V38.5873C0.5 41.6408 2.97607 44.1172 6.02945 44.1172H130.366Z" stroke="white"/>
<path d="M105.956 21.6215C105.058 21.6215 104.409 21.8703 104.009 22.3671C103.608 22.8644 103.402 23.6553 103.391 24.7407V25.037C103.391 26.2719 103.597 27.1551 104.009 27.6871C104.42 28.2188 105.08 28.4844 105.989 28.4844C106.748 28.4844 107.343 28.1772 107.773 27.5628C108.203 26.9484 108.418 26.1009 108.418 25.0207C108.418 23.9255 108.203 23.0847 107.773 22.4994C107.343 21.914 106.737 21.6215 105.956 21.6215ZM106.149 29.5985C105.577 29.5985 105.054 29.4932 104.582 29.2823C104.109 29.0711 103.711 28.7463 103.391 28.3084H103.295C103.359 28.8212 103.391 29.3079 103.391 29.7671V33.3828H102.061V20.6516H103.143L103.327 21.854H103.391C103.733 21.3729 104.132 21.0257 104.586 20.8119C105.04 20.5983 105.561 20.4911 106.149 20.4911C107.314 20.4911 108.214 20.8895 108.847 21.686C109.48 22.4823 109.797 23.5994 109.797 25.037C109.797 26.4802 109.475 27.6009 108.831 28.4007C108.187 29.1993 107.293 29.5985 106.149 29.5985Z" fill="white"/>
<path d="M112.878 29.4453H111.547V16.9707H112.878V29.4453Z" fill="white"/>
<path d="M117.524 28.5034C118.352 28.5034 119.002 28.2765 119.476 27.8224C119.948 27.3682 120.186 26.732 120.186 25.9136V25.1202L118.854 25.176C117.796 25.2138 117.034 25.3778 116.565 25.6696C116.098 25.9608 115.864 26.4138 115.864 27.0285C115.864 27.5093 116.009 27.8757 116.301 28.1264C116.592 28.3781 116.999 28.5034 117.524 28.5034ZM120.53 29.4413L120.265 28.1904H120.201C119.763 28.7416 119.326 29.1144 118.89 29.309C118.455 29.5045 117.911 29.6016 117.259 29.6016C116.388 29.6016 115.705 29.3773 115.211 28.9282C114.716 28.4792 114.469 27.841 114.469 27.0125C114.469 25.2381 115.888 24.3082 118.726 24.2224L120.218 24.1741V23.629C120.218 22.9394 120.069 22.4301 119.772 22.1018C119.476 21.7728 119.001 21.6088 118.349 21.6088C117.617 21.6088 116.788 21.8333 115.864 22.2821L115.455 21.264C115.888 21.0288 116.362 20.8445 116.878 20.7109C117.394 20.5773 117.911 20.5104 118.43 20.5104C119.477 20.5104 120.253 20.7426 120.759 21.2077C121.263 21.6728 121.516 22.4184 121.516 23.4448V29.4413H120.53Z" fill="white"/>
<path d="M122.289 20.6516H123.715L125.64 25.6626C126.062 26.8066 126.324 27.6319 126.426 28.1401H126.49C126.559 27.8668 126.705 27.401 126.927 26.7404C127.149 26.0802 127.874 24.0511 129.103 20.6516H130.531L126.754 30.657C126.38 31.6458 125.943 32.3473 125.443 32.7623C124.944 33.1761 124.33 33.3828 123.604 33.3828C123.197 33.3828 122.797 33.3375 122.401 33.2468V32.1807C122.694 32.2447 123.023 32.277 123.387 32.277C124.301 32.277 124.953 31.7642 125.343 30.7375L125.832 29.4871L122.289 20.6516Z" fill="white"/>
<path d="M80.7238 26.1378C81.1459 25.7146 81.1822 25.1272 81.1822 24.796C81.1822 23.473 80.3923 21.4146 78.8673 21.4146C78.3889 21.4146 77.875 21.6533 77.5806 22.0216C77.2686 22.4074 77.1761 22.9029 77.1761 23.3813C77.1761 24.6125 77.8929 26.6528 79.4742 26.6528C79.9334 26.6528 80.4286 26.4322 80.7238 26.1378ZM80.1905 29.6304C80.0438 29.6112 79.9513 29.6112 79.7683 29.6112C79.603 29.6112 78.6094 29.6485 77.8382 29.9066C77.434 30.0525 76.2574 30.4936 76.2574 31.7992C76.2574 33.1032 77.5262 34.0421 79.4929 34.0421C81.2561 34.0421 82.1945 33.1949 82.1945 32.0562C82.1945 31.1173 81.5878 30.6229 80.1905 29.6304ZM81.4958 21.4696C81.9182 21.8192 82.8001 22.5538 82.8001 23.9512C82.8001 25.3104 82.0283 25.9549 81.2561 26.5605C81.0171 26.7992 80.7417 27.0573 80.7417 27.4621C80.7417 27.8656 81.0171 28.0864 81.2201 28.252L81.8819 28.7656C82.6905 29.4456 83.4249 30.0709 83.4249 31.3397C83.4249 33.0669 81.7523 34.8125 78.5918 34.8125C75.9265 34.8125 74.6406 33.5448 74.6406 32.184C74.6406 31.5224 74.97 30.5858 76.0556 29.9418C77.1942 29.2434 78.7393 29.1525 79.5659 29.096C79.3078 28.7656 79.0142 28.4162 79.0142 27.8474C79.0142 27.5354 79.1065 27.3514 79.1982 27.1298C78.9953 27.1485 78.7934 27.1669 78.6094 27.1669C76.662 27.1669 75.559 25.7146 75.559 24.2818C75.559 23.4362 75.9454 22.4986 76.7348 21.8192C77.7828 20.9554 79.0326 20.808 80.0257 20.808H83.811L82.6345 21.4696H81.4958Z" fill="white"/>
<path d="M72.2193 27.8501C72.6604 27.2623 72.7705 26.5287 72.7705 25.8125C72.7705 24.1975 72.0001 21.1151 69.7244 21.1151C69.1193 21.1151 68.5137 21.3543 68.0735 21.7402C67.3577 22.3815 67.2287 23.189 67.2287 23.9791C67.2287 25.7943 68.1279 28.7845 70.3487 28.7845C71.0641 28.7845 71.7983 28.4365 72.2193 27.8501ZM69.926 29.3359C67.0089 29.3359 65.4492 27.0605 65.4492 25.005C65.4492 22.601 67.4121 20.5469 70.2023 20.5469C72.8985 20.5469 74.5868 22.6562 74.5868 24.8773C74.5868 27.0415 72.9177 29.3359 69.926 29.3359Z" fill="white"/>
<path d="M62.2731 27.8501C62.7134 27.2623 62.8238 26.5287 62.8238 25.8125C62.8238 24.1975 62.0529 21.1151 59.7771 21.1151C59.1723 21.1151 58.5662 21.3543 58.1262 21.7402C57.4105 22.3815 57.2822 23.189 57.2822 23.9791C57.2822 25.7943 58.1809 28.7845 60.4019 28.7845C61.1177 28.7845 61.8513 28.4365 62.2731 27.8501ZM59.9793 29.3359C57.0617 29.3359 55.502 27.0605 55.502 25.005C55.502 22.601 57.4657 20.5469 60.2547 20.5469C62.9518 20.5469 64.6398 22.6562 64.6398 24.8773C64.6398 27.0415 62.9705 29.3359 59.9793 29.3359Z" fill="white"/>
<path d="M54.1007 29.0471L51.4626 29.656C50.3922 29.8224 49.4333 29.9688 48.4191 29.9688C43.3269 29.9688 41.3906 26.2237 41.3906 23.2904C41.3906 19.712 44.1389 16.3922 48.8437 16.3922C49.8402 16.3922 50.7986 16.5394 51.6655 16.7794C53.0493 17.1669 53.6946 17.6461 54.1007 17.9232L52.5693 19.3805L51.9239 19.5274L52.385 18.7893C51.7581 18.181 50.6135 17.056 48.4375 17.056C45.5224 17.056 43.3269 19.2706 43.3269 22.4989C43.3269 25.9658 45.8362 29.2314 49.857 29.2314C51.0389 29.2314 51.6463 28.9917 52.2002 28.7698V25.8002L49.4151 25.9477L50.8901 25.1538H54.8013L54.3221 25.6146C54.1922 25.7258 54.1743 25.7632 54.1373 25.9096C54.1181 26.076 54.1007 26.6112 54.1007 26.7957V29.0471Z" fill="white"/>
<path d="M87.3266 28.5183C86.7175 28.4628 86.5901 28.3527 86.5901 27.6324V27.4292V17.1911C86.5938 17.1514 86.5965 17.1108 86.6002 17.0722C86.6746 16.4268 86.8586 16.3162 87.4314 15.9836H84.7922L83.4082 16.6479H84.8186V16.6564L84.8175 16.6495V27.4292V28.0386C84.8175 28.4068 84.7447 28.4628 84.3199 29.0156H87.5855L88.2679 28.6111C87.9549 28.573 87.6407 28.5551 87.3266 28.5183Z" fill="white"/>
<path d="M93.1115 23.2288C93.459 23.1011 93.6425 22.9909 93.6425 22.7347C93.6425 22.0024 92.8185 21.1589 91.8283 21.1589C91.0947 21.1589 89.7217 21.7272 89.7217 23.7053C89.7217 24.0168 89.7582 24.3467 89.7774 24.6773L93.1115 23.2288ZM94.8331 28.689C94.6323 28.7992 94.4307 28.928 94.2299 29.0189C93.6241 29.2936 93.0014 29.3672 92.451 29.3672C91.8662 29.3672 90.9494 29.3293 90.0142 28.6523C88.7145 27.7357 88.1465 26.16 88.1465 24.7864C88.1465 21.9469 90.455 20.5549 92.3419 20.5549C93.0014 20.5549 93.6801 20.7195 94.2299 21.0683C95.1449 21.6715 95.3833 22.4592 95.5107 22.8808L91.2065 24.6221L89.7956 24.732C90.2529 27.0584 91.8283 28.4133 93.5694 28.4133C94.5035 28.4133 95.1817 28.084 95.8043 27.7731L94.8331 28.689Z" fill="white"/>
<path d="M96.6014 20.6816V21.8906H96.4547V20.6816H96.0547V20.5565H97.0011V20.6816H96.6014Z" fill="white"/>
<path d="M98.2497 21.8906V20.6706H98.243L97.8704 21.8906H97.7558L97.3801 20.6706H97.3755V21.8906H97.2422V20.5565H97.4707L97.8107 21.6349H97.8153L98.1499 20.5565H98.3817V21.8906H98.2497Z" fill="white"/>
<path d="M43.7307 11.1863C43.4043 10.201 43.2408 9.66816 43.2408 9.58789H43.1949C43.1949 9.66229 43.0261 10.1951 42.688 11.1863H43.7307ZM45.0541 12.8047H44.1376C44.1376 12.6788 44.0504 12.3218 43.8768 11.7335H42.5533C42.3739 12.3122 42.284 12.6692 42.284 12.8047H41.4219C41.4219 12.7303 41.6448 12.1191 42.0907 10.9714C42.5365 9.82389 42.7597 9.19163 42.7597 9.07509H43.8424C43.8424 9.18389 44.0443 9.80682 44.4483 10.9442C44.8523 12.0812 45.0541 12.7018 45.0541 12.8047Z" fill="white"/>
<path d="M48.7477 12.8047H48.04C48.04 12.7263 47.7773 12.3132 47.2522 11.5644C46.7024 10.7756 46.389 10.2364 46.3128 9.94603H46.2669C46.3146 10.3642 46.3384 10.7423 46.3384 11.0804C46.3384 11.5519 46.3517 12.1268 46.3786 12.8047H45.6738C45.7026 12.213 45.7168 11.5626 45.7168 10.854C45.7168 10.157 45.7026 9.56389 45.6738 9.07509H46.5248C46.5248 9.17643 46.7605 9.58042 47.2322 10.2868C47.7344 11.0372 48.0229 11.5463 48.0973 11.8138H48.1402C48.0944 11.3879 48.0717 11.0058 48.0717 10.6679C48.0717 10.1503 48.0581 9.61936 48.0314 9.07509H48.7477C48.7208 9.54869 48.7074 10.1418 48.7074 10.854C48.7074 11.5719 48.7208 12.2223 48.7477 12.8047Z" fill="white"/>
<path d="M52.1171 10.9311C52.1171 10.5645 52.0102 10.2557 51.7963 10.0042C51.5824 9.75327 51.2558 9.62767 50.8166 9.62767C50.7344 9.62767 50.6216 9.63621 50.4784 9.65354C50.4976 10.0354 50.5072 10.4343 50.5072 10.8509C50.5072 11.3074 50.5166 11.7599 50.5358 12.2087C50.66 12.2335 50.784 12.2458 50.9083 12.2458C51.3187 12.2458 51.623 12.1183 51.8206 11.8634C52.0182 11.6085 52.1171 11.2978 52.1171 10.9311ZM52.899 10.8079C52.899 11.3503 52.7254 11.8237 52.3776 12.2287C52.0302 12.6338 51.5432 12.8359 50.9168 12.8359C50.6342 12.8359 50.2446 12.8245 49.748 12.8015C49.7728 12.2247 49.7854 11.5746 49.7854 10.8509C49.7854 10.1559 49.7728 9.56287 49.748 9.07194H50.2494C50.3315 9.07194 50.4536 9.06901 50.616 9.06341C50.7782 9.05755 50.8843 9.05487 50.9339 9.05487C51.6232 9.05487 52.1232 9.22661 52.4336 9.57034C52.7438 9.91407 52.899 10.3266 52.899 10.8079Z" fill="white"/>
<path d="M55.654 10.1695C55.654 9.78949 55.4095 9.59936 54.9207 9.59936C54.741 9.59936 54.5826 9.6127 54.445 9.63936C54.466 9.93563 54.4767 10.3212 54.4767 10.7967C54.5815 10.8007 54.6703 10.8026 54.7431 10.8026C55.3503 10.8026 55.654 10.5916 55.654 10.1695ZM56.7282 12.8047H55.8802C55.6586 12.1287 55.4887 11.7116 55.3703 11.553C55.2519 11.3943 55.061 11.3151 54.7975 11.3151C54.6866 11.3151 54.5807 11.3162 54.4794 11.318C54.4794 11.809 54.4882 12.3044 54.5052 12.8047H53.709C53.7335 12.2279 53.7461 11.5778 53.7461 10.854C53.7461 10.1591 53.7335 9.56603 53.709 9.07509H54.2045C54.2618 9.07509 54.3815 9.07216 54.5639 9.06656C54.7463 9.0607 54.9149 9.05802 55.0695 9.05802C55.9461 9.05802 56.3844 9.35775 56.3844 9.95749C56.3844 10.433 56.134 10.7642 55.6338 10.9514V10.9943C55.8268 11.0479 55.9956 11.1983 56.141 11.4455C56.286 11.6927 56.4818 12.146 56.7282 12.8047Z" fill="white"/>
<path d="M60.0435 10.9527C60.0435 10.5535 59.9411 10.2297 59.7368 9.98145C59.5326 9.73345 59.2803 9.60918 58.9806 9.60918C58.7016 9.60918 58.4651 9.73426 58.2702 9.98439C58.0755 10.2348 57.9779 10.5505 57.9779 10.9327C57.9779 11.3297 58.0806 11.6529 58.2859 11.902C58.4912 12.1513 58.743 12.2761 59.0408 12.2761C59.3195 12.2761 59.5563 12.1505 59.7512 11.8993C59.9459 11.6481 60.0435 11.3327 60.0435 10.9527ZM60.8339 10.8695C60.8339 11.4559 60.6544 11.942 60.2955 12.3276C59.9363 12.7132 59.4923 12.9062 58.9635 12.9062C58.4592 12.9062 58.0371 12.7292 57.6974 12.3748C57.3574 12.0206 57.1875 11.5702 57.1875 11.0241C57.1875 10.438 57.3667 9.95185 57.7259 9.56625C58.0848 9.18038 58.5288 8.98759 59.0579 8.98759C59.5622 8.98759 59.984 9.16412 60.324 9.51745C60.664 9.87078 60.8339 10.3215 60.8339 10.8695Z" fill="white"/>
<path d="M62.4552 12.8047H61.6445C61.6693 12.213 61.6819 11.5626 61.6819 10.854C61.6819 10.157 61.6693 9.56389 61.6445 9.07509H62.4552C62.4304 9.55643 62.4179 10.1492 62.4179 10.854C62.4179 11.574 62.4304 12.2244 62.4552 12.8047Z" fill="white"/>
<path d="M65.8241 10.9311C65.8241 10.5645 65.7169 10.2557 65.5033 10.0042C65.2892 9.75327 64.9628 9.62767 64.5236 9.62767C64.4415 9.62767 64.3287 9.63621 64.1855 9.65354C64.2047 10.0354 64.2143 10.4343 64.2143 10.8509C64.2143 11.3074 64.2236 11.7599 64.2428 12.2087C64.3668 12.2335 64.4911 12.2458 64.6153 12.2458C65.0257 12.2458 65.33 12.1183 65.5276 11.8634C65.7252 11.6085 65.8241 11.2978 65.8241 10.9311ZM66.606 10.8079C66.606 11.3503 66.4324 11.8237 66.0847 12.2287C65.7372 12.6338 65.25 12.8359 64.6239 12.8359C64.3412 12.8359 63.9516 12.8245 63.4551 12.8015C63.4799 12.2247 63.4924 11.5746 63.4924 10.8509C63.4924 10.1559 63.4799 9.56287 63.4551 9.07194H63.9564C64.0385 9.07194 64.1607 9.06901 64.3231 9.06341C64.4852 9.05755 64.5913 9.05487 64.6409 9.05487C65.3303 9.05487 65.8303 9.22661 66.1407 9.57034C66.4508 9.91407 66.606 10.3266 66.606 10.8079Z" fill="white"/>
<path d="M70.7912 11.1863C70.4648 10.201 70.3011 9.66816 70.3011 9.58789H70.2555C70.2555 9.66229 70.0867 10.1951 69.7486 11.1863H70.7912ZM72.1147 12.8047H71.1981C71.1981 12.6788 71.1112 12.3218 70.9371 11.7335H69.6136C69.4342 12.3122 69.3445 12.6692 69.3445 12.8047H68.4824C68.4824 12.7303 68.7054 12.1191 69.1512 10.9714C69.5971 9.82389 69.82 9.19163 69.82 9.07509H70.9027C70.9027 9.18389 71.1048 9.80682 71.5088 10.9442C71.9125 12.0812 72.1147 12.7018 72.1147 12.8047Z" fill="white"/>
<path d="M74.7168 10.2095C74.7168 9.80096 74.4456 9.59642 73.9032 9.59642C73.7674 9.59642 73.6242 9.61083 73.4736 9.63936C73.4946 10.0004 73.505 10.409 73.505 10.8655C73.5528 10.8695 73.6082 10.8711 73.6712 10.8711C74.3682 10.8711 74.7168 10.6506 74.7168 10.2095ZM75.4557 10.0519C75.4557 10.5084 75.2864 10.8455 74.9472 11.0631C74.6085 11.281 74.1925 11.3898 73.6997 11.3898C73.6101 11.3898 73.5461 11.3879 73.508 11.3839C73.508 11.7431 73.5184 12.2164 73.5394 12.8047H72.7344C72.7592 12.253 72.7717 11.6028 72.7717 10.854C72.7717 10.1666 72.7592 9.57349 72.7344 9.07509H73.233C73.3034 9.07509 73.4392 9.07216 73.6397 9.06656C73.8402 9.0607 74.0138 9.05802 74.161 9.05802C74.5237 9.05802 74.8304 9.13989 75.0805 9.30415C75.3309 9.46869 75.4557 9.71776 75.4557 10.0519Z" fill="white"/>
<path d="M78.1523 10.2095C78.1523 9.80096 77.8811 9.59642 77.3387 9.59642C77.203 9.59642 77.0598 9.61083 76.9091 9.63936C76.9302 10.0004 76.9406 10.409 76.9406 10.8655C76.9883 10.8695 77.0438 10.8711 77.1067 10.8711C77.8038 10.8711 78.1523 10.6506 78.1523 10.2095ZM78.8913 10.0519C78.8913 10.5084 78.7217 10.8455 78.383 11.0631C78.0441 11.281 77.6281 11.3898 77.1353 11.3898C77.0454 11.3898 76.9817 11.3879 76.9435 11.3839C76.9435 11.7431 76.9539 12.2164 76.975 12.8047H76.1699C76.1947 12.253 76.2073 11.6028 76.2073 10.854C76.2073 10.1666 76.1947 9.57349 76.1699 9.07509H76.6683C76.739 9.07509 76.8747 9.07216 77.0753 9.06656C77.2758 9.0607 77.4494 9.05802 77.5966 9.05802C77.9593 9.05802 78.2659 9.13989 78.5161 9.30415C78.7662 9.46869 78.8913 9.71776 78.8913 10.0519Z" fill="white"/>
<path d="M83.7193 10.9527C83.7193 10.5535 83.6171 10.2297 83.4126 9.98145C83.2083 9.73345 82.9563 9.60918 82.6563 9.60918C82.3777 9.60918 82.1409 9.73426 81.9459 9.98439C81.7513 10.2348 81.6539 10.5505 81.6539 10.9327C81.6539 11.3297 81.7563 11.6529 81.9619 11.902C82.1673 12.1513 82.4187 12.2761 82.7166 12.2761C82.9955 12.2761 83.2323 12.1505 83.427 11.8993C83.6219 11.6481 83.7193 11.3327 83.7193 10.9527ZM84.5099 10.8695C84.5099 11.4559 84.3305 11.942 83.9713 12.3276C83.6121 12.7132 83.1681 12.9062 82.6393 12.9062C82.135 12.9062 81.7129 12.7292 81.3731 12.3748C81.0334 12.0206 80.8633 11.5702 80.8633 11.0241C80.8633 10.438 81.0427 9.95185 81.4017 9.56625C81.7609 9.18038 82.2049 8.98759 82.7339 8.98759C83.2379 8.98759 83.6601 9.16412 84.0001 9.51745C84.3398 9.87078 84.5099 10.3215 84.5099 10.8695Z" fill="white"/>
<path d="M88.392 12.8047H87.6845C87.6845 12.7263 87.4221 12.3132 86.8968 11.5644C86.3466 10.7756 86.0336 10.2364 85.957 9.94603H85.9114C85.9589 10.3642 85.9829 10.7423 85.9829 11.0804C85.9829 11.5519 85.9962 12.1268 86.0229 12.8047H85.3184C85.3469 12.213 85.3613 11.5626 85.3613 10.854C85.3613 10.157 85.3469 9.56389 85.3184 9.07509H86.169C86.169 9.17643 86.405 9.58042 86.8768 10.2868C87.3789 11.0372 87.6672 11.5463 87.7418 11.8138H87.7848C87.7389 11.3879 87.716 11.0058 87.716 10.6679C87.716 10.1503 87.7026 9.61936 87.676 9.07509H88.392C88.3653 9.54869 88.352 10.1418 88.352 10.854C88.352 11.5719 88.3653 12.2223 88.392 12.8047Z" fill="white"/>
<path d="M23.7888 21.9953C19.2143 26.5583 14.6054 31.156 10 35.75V8.23963C14.6124 12.8414 19.2158 17.4326 23.7888 21.9953Z" fill="white"/>
<path d="M28.3597 17.4563C27.2434 18.6218 26.143 19.7716 25.071 20.8906C20.4256 16.2514 15.8201 11.6509 11.1641 7.00113C11.4528 7.03986 11.7394 7.05907 12.0161 7.12289C12.1577 7.15604 12.2837 7.26386 12.4119 7.34565C17.6573 10.6672 22.9023 13.9903 28.1463 17.3135C28.2342 17.3689 28.3188 17.4296 28.3597 17.4563Z" fill="white"/>
<path d="M28.4273 26.5138C28.3232 26.5822 28.2194 26.6519 28.1147 26.7188C22.9001 30.022 17.6856 33.3247 12.4732 36.6311C12.0704 36.8867 11.6627 37.0865 11.207 36.962C15.8054 32.3704 20.4095 27.7736 25.036 23.1543C26.0984 24.264 27.2047 25.4202 28.3111 26.5765C28.3498 26.5554 28.3886 26.535 28.4273 26.5138Z" fill="white"/>
<path d="M33.4076 23.3449C32.1921 24.1358 30.9668 24.9117 29.8409 25.6328C28.5623 24.4125 27.3193 23.2265 26.0469 22.0117C27.3221 20.7923 28.5635 19.605 29.8397 18.3837C30.2059 18.617 30.6691 18.9098 31.131 19.2057C31.8901 19.6924 32.6528 20.1739 33.4069 20.6683C34.4808 21.3716 34.4829 22.645 33.4076 23.3449Z" fill="white"/>
</svg>
