<svg width="140" height="46" viewBox="0 0 140 46" fill="none" xmlns="http://www.w3.org/2000/svg">
<path d="M132.974 45.0078C136.093 45.0078 138.622 42.4772 138.622 39.3574V6.14916C138.622 3.02943 136.093 0.499557 132.974 0.499557H6.14999C3.02998 0.499557 0.5 3.02959 0.5 6.14916V39.3574C0.5 42.477 3.03007 45.0078 6.14999 45.0078H132.974Z" stroke="white"/>
<path d="M36.2789 30.0845C35.5424 31.717 35.1898 32.4455 34.2418 33.8882C32.9184 35.9029 31.0538 38.4112 28.7434 38.4322C26.6898 38.4512 26.1627 37.0958 23.3763 37.1112C20.5899 37.1264 20.008 38.4559 17.9542 38.4373C15.6436 38.4159 13.8766 36.1506 12.5534 34.1368C8.8534 28.5045 8.46684 21.8946 10.7484 18.3808C12.3703 15.8835 14.9279 14.4216 17.3336 14.4216C19.7826 14.4216 21.3222 15.7648 23.3471 15.7648C25.3112 15.7648 26.5086 14.4195 29.3397 14.4195C31.48 14.4195 33.7477 15.5845 35.3637 17.6003C30.0696 20.5013 30.9293 28.0631 36.2789 30.0845Z" fill="white"/>
<path d="M27.1931 12.1693C28.2211 10.849 29.0029 8.98369 28.7195 7.07809C27.0395 7.19382 25.0732 8.26289 23.9253 9.65675C22.8836 10.9224 22.0237 12.7992 22.3586 14.6229C24.193 14.6797 26.0909 13.584 27.1931 12.1693Z" fill="white"/>
<path d="M48.8076 20.8549C48.9865 21.5511 49.1796 22.2744 49.4279 23.0557L50.8561 27.1923H46.7911L48.1993 23.0288C48.414 22.3539 48.6177 21.6245 48.8076 20.8549ZM47.55 18.2896L42.25 33.8906H44.6769L46.2593 29.1002H51.391L53.0182 33.8906H55.5124L50.1895 18.2896H47.55Z" fill="white"/>
<path d="M61.7828 24.2911C63.8871 24.2911 64.8287 26.2402 64.8287 28.1717C64.8287 30.6629 63.6271 32.2106 61.6932 32.2106C60.373 32.2106 59.2308 31.312 58.9124 30.0202C58.8578 29.8202 58.8287 29.5552 58.8287 29.2563V27.3581C58.8287 27.1862 58.8671 26.9776 58.9036 26.7754C58.9154 26.7109 58.9282 26.6463 58.9375 26.5838C59.2895 25.2333 60.458 24.2911 61.7828 24.2911ZM62.3708 22.3368C60.7631 22.3368 59.4756 22.9576 58.6183 24.1371L58.5242 22.5853H56.3652L56.378 22.7838C56.4418 23.7504 56.4682 24.8144 56.4682 26.3421V38.3672H58.8287V32.7554C59.561 33.6317 60.7303 34.1419 62.0551 34.1419C63.4348 34.1419 64.7058 33.6016 65.6319 32.6212C66.6657 31.5285 67.2111 29.9578 67.2111 28.081C67.2111 26.4229 66.7375 24.9891 65.8399 23.9357C64.9607 22.9045 63.7292 22.3368 62.3708 22.3368Z" fill="white"/>
<path d="M73.9391 24.2911C76.0423 24.2911 76.9841 26.2402 76.9841 28.1717C76.9841 30.6629 75.7817 32.2106 73.8489 32.2106C72.5292 32.2106 71.386 31.312 71.0681 30.0202C71.0135 29.8202 70.9849 29.5552 70.9849 29.2563V27.3581C70.9849 27.185 71.0228 26.9757 71.0601 26.7733C71.0719 26.7098 71.0836 26.6463 71.0943 26.5838C71.4449 25.2333 72.614 24.2911 73.9391 24.2911ZM74.5265 22.3368C72.9193 22.3368 71.6319 22.9576 70.7737 24.1371L70.6796 22.5853H68.5215L68.5335 22.7838C68.5975 23.7515 68.6244 24.8144 68.6244 26.3421V38.3672H70.9849V32.7554C71.7172 33.6317 72.8857 34.1419 74.2105 34.1419C75.59 34.1419 76.8612 33.6016 77.7889 32.6212C78.8212 31.5285 79.3671 29.9578 79.3671 28.081C79.3671 26.4229 78.8927 24.9891 77.9951 23.9357C77.1164 22.9045 75.8849 22.3368 74.5265 22.3368Z" fill="white"/>
<path d="M89.7542 24.9019C87.5513 24.0485 86.8454 23.3779 86.8454 22.1383C86.8454 21.0945 87.6748 20.0419 89.5284 20.0419C91.0574 20.0419 92.0355 20.5737 92.2993 20.7374L92.4993 20.8608L93.1654 18.8909L93.0337 18.814C92.6382 18.5822 91.5113 18.043 89.5964 18.043C86.5862 18.043 84.4838 19.82 84.4838 22.3636C84.4838 24.4147 85.8004 25.8485 88.6268 26.8764C90.63 27.6249 91.3756 28.3918 91.3756 29.7067C91.3756 31.195 90.2252 32.1184 88.3753 32.1184C87.1702 32.1184 85.9302 31.7673 84.9732 31.154L84.7684 31.0227L84.1348 33.0379L84.2513 33.115C85.1425 33.7102 86.8196 34.1406 88.2404 34.1406C92.2971 34.1406 93.7355 31.667 93.7355 29.5485C93.7355 27.3649 92.5825 26.0179 89.7542 24.9019Z" fill="white"/>
<path d="M97.9845 19.8964L95.6693 20.6232V22.5841H93.9746V24.4704H95.6693V30.2492C95.6693 31.6461 95.9365 32.6251 96.4866 33.2441C97.0141 33.8222 97.825 34.1406 98.7703 34.1406C99.6626 34.1406 100.296 33.9643 100.595 33.8588L100.727 33.8121L100.614 31.9222L100.388 31.9916C100.089 32.0832 99.7829 32.1184 99.2895 32.1184C98.3751 32.1184 97.9845 31.5398 97.9845 30.1812V24.4704H100.832V22.5841H97.9845V19.8964Z" fill="white"/>
<path d="M106.613 24.1993C108.736 24.1993 109.703 26.2692 109.703 28.1935C109.703 30.5595 108.384 32.2771 106.568 32.2771H106.545C104.755 32.2771 103.455 30.5884 103.455 28.2617C103.455 26.2398 104.432 24.1993 106.613 24.1993ZM106.681 22.3355C103.378 22.3355 101.072 24.8008 101.072 28.3284C101.072 31.7507 103.304 34.1406 106.5 34.1406H106.522C109.224 34.1406 112.131 32.2583 112.131 28.1251C112.131 26.4449 111.611 25.0014 110.627 23.9502C109.637 22.8945 108.272 22.3355 106.681 22.3355Z" fill="white"/>
<path d="M119.36 22.4437L119.218 22.4077C119.01 22.3557 118.841 22.3339 118.631 22.3339C117.396 22.3339 116.288 23.0611 115.672 24.2342L115.602 22.5824H113.484L113.498 22.7808C113.561 23.7152 113.587 24.7643 113.587 26.1797L113.565 33.8906H115.925V27.8752C115.925 27.5475 115.948 27.2378 115.991 26.96C116.257 25.5152 117.232 24.5813 118.474 24.5813C118.716 24.5813 118.906 24.6011 119.107 24.6211L119.36 24.6469V22.4437Z" fill="white"/>
<path d="M124.51 24.1081C125.228 24.1081 125.812 24.3305 126.243 24.7688C126.922 25.4601 127.04 26.4779 127.055 26.9664H121.672C121.891 25.6033 122.744 24.1081 124.51 24.1081ZM124.667 22.3121C121.525 22.3121 119.33 24.823 119.33 28.4179C119.33 31.8796 121.513 34.1172 124.893 34.1172C126.67 34.1172 127.907 33.727 128.63 33.4003L128.772 33.336L128.319 31.5774L128.122 31.6565C127.478 31.9184 126.623 32.1856 125.164 32.1856C124.139 32.1856 121.774 31.8473 121.629 28.7632L129.248 28.7862L129.278 28.6353C129.326 28.3955 129.349 28.0723 129.349 27.6502C129.349 25.1878 128.123 22.3121 124.667 22.3121Z" fill="white"/>
<path d="M43.3212 14.1737C43.5889 14.2174 43.9785 14.2174 44.3927 14.2174C46.6567 14.2281 47.886 13.0782 47.886 11.0844C47.8983 9.32064 46.8025 8.23584 44.5631 8.23584C44.0156 8.23584 43.6012 8.28011 43.3212 8.33451V14.1737ZM42.25 7.63344C42.9076 7.54571 43.6745 7.48011 44.514 7.48011C46.0359 7.48011 47.1193 7.78704 47.8375 8.38971C48.5799 8.99184 49.0063 9.85718 49.0063 11.0516C49.0063 12.2566 48.5799 13.2422 47.8255 13.9217C47.0463 14.6118 45.7801 14.9844 44.1857 14.9844C43.4188 14.9844 42.798 14.9625 42.25 14.8966V7.63344Z" fill="white"/>
<path d="M52.839 14.3159C53.8614 14.3159 54.6286 13.4505 54.6286 12.2455C54.6286 11.3471 54.1294 10.2188 52.8636 10.2188C51.6094 10.2188 51.0617 11.2705 51.0617 12.2785C51.0617 13.4396 51.7921 14.3159 52.8268 14.3159H52.839ZM52.8025 15.0391C51.2198 15.0391 49.9785 13.9876 49.9785 12.3116C49.9785 10.5367 51.2809 9.49586 52.8996 9.49586C54.5921 9.49586 55.7358 10.602 55.7358 12.2127C55.7358 14.1847 54.2145 15.0391 52.815 15.0391H52.8025Z" fill="white"/>
<path d="M57.4319 9.61947L58.2229 12.304C58.381 12.8952 58.5397 13.4539 58.649 14.0019H58.6855C58.8194 13.4648 59.0141 12.8952 59.209 12.3149L60.1706 9.61947H61.0717L61.9847 12.2707C62.2034 12.8952 62.3741 13.4648 62.5079 14.0019H62.5445C62.6418 13.4648 62.8002 12.9061 62.9949 12.2819L63.8343 9.61947H64.8938L62.9949 14.9219H62.021L61.1205 12.3915C60.9135 11.7888 60.7429 11.2629 60.5965 10.6384H60.5725C60.4263 11.2739 60.2439 11.8325 60.0365 12.4024L59.0874 14.9219H58.1135L56.3359 9.61947H57.4319Z" fill="white"/>
<path d="M65.9651 11.0549C65.9651 10.496 65.9528 10.0581 65.916 9.61947H66.8659L66.9264 10.4853H66.9509C67.2432 9.99228 67.9245 9.49921 68.8984 9.49921C69.7139 9.49921 70.9797 9.93734 70.9797 11.756V14.9219H69.9093V11.8653C69.9093 11.0109 69.5555 10.2883 68.5453 10.2883C67.8517 10.2883 67.3035 10.7373 67.1093 11.2739C67.0605 11.3944 67.036 11.5696 67.036 11.7232V14.9219H65.9651V11.0549Z" fill="white"/>
<path d="M72.7207 7.14401H73.7919V14.9219H72.7207V7.14401Z" fill="white"/>
<path d="M78.0043 14.3159C79.0269 14.3159 79.7941 13.4505 79.7941 12.2455C79.7941 11.3471 79.2949 10.2188 78.0293 10.2188C76.7752 10.2188 76.2272 11.2705 76.2272 12.2785C76.2272 13.4396 76.9576 14.3159 77.9925 14.3159H78.0043ZM77.9683 15.0391C76.3861 15.0391 75.1445 13.9876 75.1445 12.3116C75.1445 10.5367 76.4461 9.49586 78.0659 9.49586C79.7573 9.49586 80.9016 10.602 80.9016 12.2127C80.9016 14.1847 79.38 15.0391 77.9803 15.0391H77.9683Z" fill="white"/>
<path d="M85.3577 12.2127C84.1889 12.1908 82.8622 12.3772 82.8622 13.4068C82.8622 14.0423 83.3246 14.3271 83.8603 14.3271C84.6393 14.3271 85.1385 13.8889 85.3086 13.4396C85.3457 13.3412 85.3577 13.2313 85.3577 13.1329V12.2127ZM86.4041 13.6479C86.4041 14.1079 86.4286 14.5567 86.4894 14.9185H85.5275L85.4302 14.2505H85.3942C85.0777 14.6668 84.4321 15.0391 83.5926 15.0391C82.4001 15.0391 81.791 14.2833 81.791 13.5161C81.791 12.2345 83.0566 11.5335 85.3329 11.5444V11.4348C85.3329 10.9969 85.1995 10.1972 83.9942 10.2081C83.4337 10.2081 82.8622 10.35 82.4484 10.602L82.2046 9.95613C82.6915 9.68226 83.4097 9.49586 84.1526 9.49586C85.9662 9.49586 86.4041 10.602 86.4041 11.6652V13.6479Z" fill="white"/>
<path d="M92.1386 11.7745C92.1386 11.6431 92.1266 11.4897 92.0895 11.3583C91.9319 10.7559 91.3474 10.2519 90.5442 10.2519C89.4362 10.2519 88.7786 11.1281 88.7786 12.2897C88.7786 13.374 89.3757 14.2609 90.5197 14.2609C91.2381 14.2609 91.8954 13.8231 92.0895 13.1111C92.1266 12.9796 92.1386 12.8479 92.1386 12.6948V11.7745ZM93.2095 7.14067V13.5489C93.2095 14.0201 93.2226 14.5567 93.2583 14.9185H92.297L92.2485 13.9985H92.2239C91.8954 14.59 91.1893 15.0391 90.2277 15.0391C88.8031 15.0391 87.6954 13.9548 87.6954 12.3441C87.6831 10.5692 88.913 9.49586 90.3367 9.49586C91.2503 9.49586 91.8589 9.8796 92.1146 10.2956H92.1386V7.14067H93.2095Z" fill="white"/>
<path d="M100.001 14.3159C101.024 14.3159 101.79 13.4505 101.79 12.2455C101.79 11.3471 101.292 10.2188 100.026 10.2188C98.7718 10.2188 98.2244 11.2705 98.2244 12.2785C98.2244 13.4396 98.9548 14.3159 99.9889 14.3159H100.001ZM99.9646 15.0391C98.3822 15.0391 97.1406 13.9876 97.1406 12.3116C97.1406 10.5367 98.4438 9.49586 100.062 9.49586C101.755 9.49586 102.898 10.602 102.898 12.2127C102.898 14.1847 101.377 15.0391 99.9774 15.0391H99.9646Z" fill="white"/>
<path d="M104.25 11.0549C104.25 10.496 104.238 10.0581 104.201 9.61947H105.151L105.212 10.4853H105.236C105.528 9.99228 106.21 9.49921 107.184 9.49921C107.999 9.49921 109.265 9.93734 109.265 11.756V14.9219H108.194V11.8653C108.194 11.0109 107.841 10.2883 106.83 10.2883C106.137 10.2883 105.589 10.7373 105.394 11.2739C105.345 11.3944 105.321 11.5696 105.321 11.7232V14.9219H104.25V11.0549Z" fill="white"/>
<path d="M114.878 8.34573V9.61613H116.411V10.35H114.878V13.2097C114.878 13.8668 115.085 14.2393 115.681 14.2393C115.973 14.2393 116.144 14.2175 116.302 14.1737L116.351 14.9076C116.144 14.9732 115.815 15.0391 115.401 15.0391C114.902 15.0391 114.5 14.8857 114.244 14.634C113.952 14.338 113.831 13.8668 113.831 13.2423V10.35H112.918V9.61613H113.831V8.64147L114.878 8.34573Z" fill="white"/>
<path d="M117.617 7.14401H118.688V10.4523H118.713C118.883 10.1784 119.151 9.92667 119.48 9.77307C119.796 9.59814 120.173 9.49921 120.576 9.49921C121.366 9.49921 122.632 9.93734 122.632 11.7669V14.9219H121.561V11.8765C121.561 11.0109 121.208 10.2989 120.198 10.2989C119.504 10.2989 118.969 10.7373 118.761 11.2629C118.7 11.3944 118.688 11.5368 118.688 11.7232V14.9219H117.617V7.14401Z" fill="white"/>
<path d="M128.111 11.7449C128.122 11.1422 127.831 10.1782 126.637 10.1782C125.542 10.1782 125.079 11.0766 124.994 11.7449H128.111ZM124.982 12.435C125.007 13.7385 125.92 14.2755 126.99 14.2755C127.757 14.2755 128.232 14.1547 128.622 14.0123L128.817 14.6915C128.439 14.8449 127.782 15.0312 126.845 15.0312C125.043 15.0312 123.947 13.9465 123.947 12.3585C123.947 10.7481 125.007 9.48805 126.722 9.48805C128.646 9.48805 129.145 11.0107 129.145 11.9859C129.145 12.183 129.133 12.3366 129.109 12.4459L124.982 12.435Z" fill="white"/>
</svg>
